<?xml version="1.0" encoding="iso-8859-1"?>
<!-- Uploaded to: SVG Repo, www.svgrepo.com, Generator: SVG Repo Mixer Tools -->
<svg version="1.1" id="Layer_1" xmlns="http://www.w3.org/2000/svg" xmlns:xlink="http://www.w3.org/1999/xlink" 
	 viewBox="0 0 512 512" xml:space="preserve">
<rect x="10.45" y="51.867" style="fill:#30C9B0;" width="449.346" height="41.8"/>
<rect x="10.45" y="93.662" style="fill:#EFEFEF;" width="449.346" height="323.947"/>
<rect x="109.724" y="280.193" style="fill:#D1D5D8;" width="250.798" height="41.8"/>
<path style="fill:#45CCFF;" d="M282.147,157.934h-94.049c-20.2,0-36.575,16.375-36.575,36.575l0,0
	c0,20.2,16.375,36.575,36.575,36.575h94.049c20.2,0,36.575-16.375,36.575-36.575l0,0
	C318.722,174.309,302.347,157.934,282.147,157.934z"/>
<rect x="385.32" y="382.437" transform="matrix(0.7071 0.7071 -0.7071 0.7071 415.4655 -196.35)" style="fill:#5A6B96;" width="118.856" height="41.799"/>
<circle style="fill:#EFEFEF;" cx="355.108" cy="313.695" r="64.215"/>
<g>
	<path style="fill:#231F20;" d="M188.098,241.533h94.049c25.929,0,47.025-21.095,47.025-47.025s-21.095-47.025-47.025-47.025
		h-94.049c-25.929,0-47.025,21.095-47.025,47.025C141.074,220.439,162.169,241.533,188.098,241.533z M188.098,168.384h94.049
		c14.405,0,26.125,11.72,26.125,26.125c0,14.405-11.72,26.125-26.125,26.125h-94.049c-14.405,0-26.125-11.72-26.125-26.125
		C161.973,180.104,173.693,168.384,188.098,168.384z"/>
	<path style="fill:#231F20;" d="M508.939,423.187l-38.694-38.694V51.867c0-5.771-4.679-10.45-10.45-10.45H10.45
		C4.679,41.417,0,46.095,0,51.867v365.746c0,5.771,4.679,10.45,10.45,10.45h414.694l39.46,39.46
		c2.041,2.041,4.715,3.061,7.389,3.061c2.674,0,5.348-1.02,7.389-3.061l29.556-29.556
		C513.021,433.885,513.021,427.268,508.939,423.187z M20.9,62.317h428.446v20.9H20.9V62.317z M20.9,407.163V104.116h428.446v259.477
		l-24.134-24.134c2.988-8.144,4.558-16.833,4.558-25.766c0-19.943-7.766-38.691-21.867-52.793
		c-14.101-14.102-32.85-21.867-52.793-21.867s-38.691,7.766-52.793,21.867c-2.775,2.775-5.296,5.738-7.571,8.848H109.724
		c-5.77,0-10.45,4.678-10.45,10.45v41.8c0,5.771,4.679,10.45,10.45,10.45h173.099c3.289,12.765,9.928,24.472,19.494,34.037
		c14.101,14.101,32.85,21.867,52.793,21.867c8.934,0,17.623-1.57,25.766-4.558l23.368,23.368H20.9V407.163z M393.123,351.707
		c-10.154,10.154-23.654,15.746-38.014,15.746c-14.359,0-27.859-5.592-38.014-15.746c-10.154-10.153-15.746-23.653-15.746-38.014
		s5.593-27.86,15.746-38.014c10.154-10.154,23.654-15.746,38.014-15.746c14.359,0,27.859,5.592,38.014,15.746
		c10.154,10.153,15.746,23.653,15.746,38.014S403.277,341.553,393.123,351.707z M280.502,311.548H120.174v-20.9h163.905
		C281.917,297.333,280.704,304.352,280.502,311.548z M471.994,445.355l-71.999-72c2.766-2.09,5.413-4.375,7.907-6.87
		c2.494-2.494,4.78-5.141,6.87-7.907l71.999,71.999L471.994,445.355z"/>
	<path style="fill:#231F20;" d="M110.769,356.157h-1.045c-5.77,0-10.45,4.678-10.45,10.45s4.679,10.45,10.45,10.45h1.045
		c5.77,0,10.45-4.678,10.45-10.45S116.539,356.157,110.769,356.157z"/>
	<path style="fill:#231F20;" d="M263.86,356.157H151.524c-5.77,0-10.45,4.678-10.45,10.45s4.679,10.45,10.45,10.45H263.86
		c5.77,0,10.45-4.678,10.45-10.45S269.63,356.157,263.86,356.157z"/>
</g>
</svg>