<svg width="58" height="55" viewBox="0 0 58 55" fill="none" xmlns="http://www.w3.org/2000/svg">
<path d="M55.5724 44.0303L45.8528 34.7262L38.3766 31.7695C40.8659 28.3808 42.1996 24.3381 42.1948 20.1955C42.1948 9.05963 32.7306 0 21.0974 0C9.46422 0 0 9.05963 0 20.1955C0 31.3314 9.46422 40.391 21.0974 40.391C25.4627 40.3958 29.7208 39.0971 33.2786 36.6758L36.3593 43.8131L46.0786 53.1177C46.7019 53.7145 47.442 54.1878 48.2564 54.5108C49.0708 54.8337 49.9438 55 50.8253 55C51.7069 55 52.5798 54.8338 53.3943 54.5109C54.2087 54.188 54.9488 53.7147 55.5721 53.118C56.1955 52.5213 56.69 51.813 57.0274 51.0333C57.3648 50.2537 57.5384 49.4181 57.5385 48.5742C57.5385 47.7304 57.3649 46.8947 57.0275 46.1151C56.6902 45.3355 56.1958 44.6271 55.5724 44.0303ZM3.83589 20.1955C3.83589 11.0846 11.5796 3.67191 21.0974 3.67191C30.6152 3.67191 38.3589 11.0846 38.3589 20.1955C38.3589 29.3064 30.6152 36.7191 21.0974 36.7191C11.5796 36.7191 3.83589 29.3064 3.83589 20.1955ZM52.8599 50.5213C52.3199 51.0371 51.5883 51.3267 50.8255 51.3267C50.0628 51.3267 49.3312 51.0371 48.7912 50.5213L39.6124 41.7349L36.7482 35.0985L43.6812 37.8403L52.8601 46.6267C53.3988 47.1436 53.7013 47.844 53.7012 48.5741C53.7012 49.3042 53.3986 50.0045 52.8599 50.5213Z" fill="black"/>
</svg>
